<?xml version="1.0" encoding="utf-8" standalone="no"?>
<!DOCTYPE svg PUBLIC "-//W3C//DTD SVG 1.1//EN"
  "http://www.w3.org/Graphics/SVG/1.1/DTD/svg11.dtd">
<svg xmlns:xlink="http://www.w3.org/1999/xlink" width="432pt" height="432pt" viewBox="0 0 432 432" xmlns="http://www.w3.org/2000/svg" version="1.1">
 <metadata>
  <rdf:RDF xmlns:dc="http://purl.org/dc/elements/1.1/" xmlns:cc="http://creativecommons.org/ns#" xmlns:rdf="http://www.w3.org/1999/02/22-rdf-syntax-ns#">
   <cc:Work>
    <dc:type rdf:resource="http://purl.org/dc/dcmitype/StillImage"/>
    <dc:date>2024-05-24T16:55:26.583636</dc:date>
    <dc:format>image/svg+xml</dc:format>
    <dc:creator>
     <cc:Agent>
      <dc:title>Matplotlib v3.8.0, https://matplotlib.org/</dc:title>
     </cc:Agent>
    </dc:creator>
   </cc:Work>
  </rdf:RDF>
 </metadata>
 <defs>
  <style type="text/css">*{stroke-linejoin: round; stroke-linecap: butt}</style>
 </defs>
 <g id="figure_1">
  <g id="patch_1">
   <path d="M 0 432 
L 432 432 
L 432 0 
L 0 0 
z
" style="fill: #ffffff"/>
  </g>
  <g id="axes_1">
   <g id="patch_2">
    <path d="M 54 378 
L 388.8 378 
L 388.8 51.84 
L 54 51.84 
z
" style="fill: #ffffff"/>
   </g>
   <g id="patch_3">
    <path d="M 69.218182 378 
L 74.107558 378 
L 74.107558 232.27947 
L 69.218182 232.27947 
z
" clip-path="url(#pc538cd972c)" style="fill: #1f77b4"/>
   </g>
   <g id="patch_4">
    <path d="M 75.329901 378 
L 80.219277 378 
L 80.219277 366.534038 
L 75.329901 366.534038 
z
" clip-path="url(#pc538cd972c)" style="fill: #1f77b4"/>
   </g>
   <g id="patch_5">
    <path d="M 81.441621 378 
L 86.330997 378 
L 86.330997 307.592026 
L 81.441621 307.592026 
z
" clip-path="url(#pc538cd972c)" style="fill: #1f77b4"/>
   </g>
   <g id="patch_6">
    <path d="M 87.553341 378 
L 92.442716 378 
L 92.442716 334.443164 
L 87.553341 334.443164 
z
" clip-path="url(#pc538cd972c)" style="fill: #1f77b4"/>
   </g>
   <g id="patch_7">
    <path d="M 93.66506 378 
L 98.554436 378 
L 98.554436 368.859243 
L 93.66506 368.859243 
z
" clip-path="url(#pc538cd972c)" style="fill: #1f77b4"/>
   </g>
   <g id="patch_8">
    <path d="M 99.77678 378 
L 104.666156 378 
L 104.666156 311.858207 
L 99.77678 311.858207 
z
" clip-path="url(#pc538cd972c)" style="fill: #1f77b4"/>
   </g>
   <g id="patch_9">
    <path d="M 105.888499 378 
L 110.777875 378 
L 110.777875 362.681973 
L 105.888499 362.681973 
z
" clip-path="url(#pc538cd972c)" style="fill: #1f77b4"/>
   </g>
   <g id="patch_10">
    <path d="M 112.000219 378 
L 116.889595 378 
L 116.889595 253.320619 
L 112.000219 253.320619 
z
" clip-path="url(#pc538cd972c)" style="fill: #1f77b4"/>
   </g>
   <g id="patch_11">
    <path d="M 118.111939 378 
L 123.001314 378 
L 123.001314 344.310474 
L 118.111939 344.310474 
z
" clip-path="url(#pc538cd972c)" style="fill: #1f77b4"/>
   </g>
   <g id="patch_12">
    <path d="M 124.223658 378 
L 129.113034 378 
L 129.113034 345.400668 
L 124.223658 345.400668 
z
" clip-path="url(#pc538cd972c)" style="fill: #1f77b4"/>
   </g>
   <g id="patch_13">
    <path d="M 130.335378 378 
L 135.224754 378 
L 135.224754 333.260575 
L 130.335378 333.260575 
z
" clip-path="url(#pc538cd972c)" style="fill: #1f77b4"/>
   </g>
   <g id="patch_14">
    <path d="M 136.447097 378 
L 141.336473 378 
L 141.336473 359.583298 
L 136.447097 359.583298 
z
" clip-path="url(#pc538cd972c)" style="fill: #1f77b4"/>
   </g>
   <g id="patch_15">
    <path d="M 142.558817 378 
L 147.448193 378 
L 147.448193 187.361989 
L 142.558817 187.361989 
z
" clip-path="url(#pc538cd972c)" style="fill: #1f77b4"/>
   </g>
   <g id="patch_16">
    <path d="M 148.670537 378 
L 153.559912 378 
L 153.559912 302.449111 
L 148.670537 302.449111 
z
" clip-path="url(#pc538cd972c)" style="fill: #1f77b4"/>
   </g>
   <g id="patch_17">
    <path d="M 154.782256 378 
L 159.671632 378 
L 159.671632 326.641164 
L 154.782256 326.641164 
z
" clip-path="url(#pc538cd972c)" style="fill: #1f77b4"/>
   </g>
   <g id="patch_18">
    <path d="M 160.893976 378 
L 165.783352 378 
L 165.783352 378 
L 160.893976 378 
z
" clip-path="url(#pc538cd972c)" style="fill: #1f77b4"/>
   </g>
   <g id="patch_19">
    <path d="M 167.005696 378 
L 171.895071 378 
L 171.895071 369.147097 
L 167.005696 369.147097 
z
" clip-path="url(#pc538cd972c)" style="fill: #1f77b4"/>
   </g>
   <g id="patch_20">
    <path d="M 173.117415 378 
L 178.006791 378 
L 178.006791 67.371429 
L 173.117415 67.371429 
z
" clip-path="url(#pc538cd972c)" style="fill: #1f77b4"/>
   </g>
   <g id="patch_21">
    <path d="M 179.229135 378 
L 184.11851 378 
L 184.11851 340.468361 
L 179.229135 340.468361 
z
" clip-path="url(#pc538cd972c)" style="fill: #1f77b4"/>
   </g>
   <g id="patch_22">
    <path d="M 185.340854 378 
L 190.23023 378 
L 190.23023 275.883687 
L 185.340854 275.883687 
z
" clip-path="url(#pc538cd972c)" style="fill: #1f77b4"/>
   </g>
   <g id="patch_23">
    <path d="M 191.452574 378 
L 196.34195 378 
L 196.34195 293.541938 
L 191.452574 293.541938 
z
" clip-path="url(#pc538cd972c)" style="fill: #1f77b4"/>
   </g>
   <g id="patch_24">
    <path d="M 197.564294 378 
L 202.453669 378 
L 202.453669 340.278248 
L 197.564294 340.278248 
z
" clip-path="url(#pc538cd972c)" style="fill: #1f77b4"/>
   </g>
   <g id="patch_25">
    <path d="M 203.676013 378 
L 208.565389 378 
L 208.565389 233.129966 
L 203.676013 233.129966 
z
" clip-path="url(#pc538cd972c)" style="fill: #1f77b4"/>
   </g>
   <g id="patch_26">
    <path d="M 209.787733 378 
L 214.677108 378 
L 214.677108 290.915048 
L 209.787733 290.915048 
z
" clip-path="url(#pc538cd972c)" style="fill: #1f77b4"/>
   </g>
   <g id="patch_27">
    <path d="M 215.899452 378 
L 220.788828 378 
L 220.788828 255.309522 
L 215.899452 255.309522 
z
" clip-path="url(#pc538cd972c)" style="fill: #1f77b4"/>
   </g>
   <g id="patch_28">
    <path d="M 222.011172 378 
L 226.900548 378 
L 226.900548 346.812261 
L 222.011172 346.812261 
z
" clip-path="url(#pc538cd972c)" style="fill: #1f77b4"/>
   </g>
   <g id="patch_29">
    <path d="M 228.122892 378 
L 233.012267 378 
L 233.012267 275.397129 
L 228.122892 275.397129 
z
" clip-path="url(#pc538cd972c)" style="fill: #1f77b4"/>
   </g>
   <g id="patch_30">
    <path d="M 234.234611 378 
L 239.123987 378 
L 239.123987 295.659785 
L 234.234611 295.659785 
z
" clip-path="url(#pc538cd972c)" style="fill: #1f77b4"/>
   </g>
   <g id="patch_31">
    <path d="M 240.346331 378 
L 245.235706 378 
L 245.235706 295.668474 
L 240.346331 295.668474 
z
" clip-path="url(#pc538cd972c)" style="fill: #1f77b4"/>
   </g>
   <g id="patch_32">
    <path d="M 246.45805 378 
L 251.347426 378 
L 251.347426 209.419618 
L 246.45805 209.419618 
z
" clip-path="url(#pc538cd972c)" style="fill: #1f77b4"/>
   </g>
   <g id="patch_33">
    <path d="M 252.56977 378 
L 257.459146 378 
L 257.459146 340.028926 
L 252.56977 340.028926 
z
" clip-path="url(#pc538cd972c)" style="fill: #1f77b4"/>
   </g>
   <g id="patch_34">
    <path d="M 258.68149 378 
L 263.570865 378 
L 263.570865 239.212472 
L 258.68149 239.212472 
z
" clip-path="url(#pc538cd972c)" style="fill: #1f77b4"/>
   </g>
   <g id="patch_35">
    <path d="M 264.793209 378 
L 269.682585 378 
L 269.682585 355.345897 
L 264.793209 355.345897 
z
" clip-path="url(#pc538cd972c)" style="fill: #1f77b4"/>
   </g>
   <g id="patch_36">
    <path d="M 270.904929 378 
L 275.794304 378 
L 275.794304 357.013053 
L 270.904929 357.013053 
z
" clip-path="url(#pc538cd972c)" style="fill: #1f77b4"/>
   </g>
   <g id="patch_37">
    <path d="M 277.016648 378 
L 281.906024 378 
L 281.906024 377.696474 
L 277.016648 377.696474 
z
" clip-path="url(#pc538cd972c)" style="fill: #1f77b4"/>
   </g>
   <g id="patch_38">
    <path d="M 283.128368 378 
L 288.017744 378 
L 288.017744 339.752634 
L 283.128368 339.752634 
z
" clip-path="url(#pc538cd972c)" style="fill: #1f77b4"/>
   </g>
   <g id="patch_39">
    <path d="M 289.240088 378 
L 294.129463 378 
L 294.129463 355.629812 
L 289.240088 355.629812 
z
" clip-path="url(#pc538cd972c)" style="fill: #1f77b4"/>
   </g>
   <g id="patch_40">
    <path d="M 295.351807 378 
L 300.241183 378 
L 300.241183 320.838013 
L 295.351807 320.838013 
z
" clip-path="url(#pc538cd972c)" style="fill: #1f77b4"/>
   </g>
   <g id="patch_41">
    <path d="M 301.463527 378 
L 306.352903 378 
L 306.352903 329.1566 
L 301.463527 329.1566 
z
" clip-path="url(#pc538cd972c)" style="fill: #1f77b4"/>
   </g>
   <g id="patch_42">
    <path d="M 307.575246 378 
L 312.464622 378 
L 312.464622 302.241848 
L 307.575246 302.241848 
z
" clip-path="url(#pc538cd972c)" style="fill: #1f77b4"/>
   </g>
   <g id="patch_43">
    <path d="M 313.686966 378 
L 318.576342 378 
L 318.576342 192.10091 
L 313.686966 192.10091 
z
" clip-path="url(#pc538cd972c)" style="fill: #1f77b4"/>
   </g>
   <g id="patch_44">
    <path d="M 319.798686 378 
L 324.688061 378 
L 324.688061 309.270525 
L 319.798686 309.270525 
z
" clip-path="url(#pc538cd972c)" style="fill: #1f77b4"/>
   </g>
   <g id="patch_45">
    <path d="M 325.910405 378 
L 330.799781 378 
L 330.799781 290.810389 
L 325.910405 290.810389 
z
" clip-path="url(#pc538cd972c)" style="fill: #1f77b4"/>
   </g>
   <g id="patch_46">
    <path d="M 332.022125 378 
L 336.911501 378 
L 336.911501 291.800367 
L 332.022125 291.800367 
z
" clip-path="url(#pc538cd972c)" style="fill: #1f77b4"/>
   </g>
   <g id="patch_47">
    <path d="M 338.133844 378 
L 343.02322 378 
L 343.02322 236.458518 
L 338.133844 236.458518 
z
" clip-path="url(#pc538cd972c)" style="fill: #1f77b4"/>
   </g>
   <g id="patch_48">
    <path d="M 344.245564 378 
L 349.13494 378 
L 349.13494 306.638337 
L 344.245564 306.638337 
z
" clip-path="url(#pc538cd972c)" style="fill: #1f77b4"/>
   </g>
   <g id="patch_49">
    <path d="M 350.357284 378 
L 355.246659 378 
L 355.246659 278.135488 
L 350.357284 278.135488 
z
" clip-path="url(#pc538cd972c)" style="fill: #1f77b4"/>
   </g>
   <g id="patch_50">
    <path d="M 356.469003 378 
L 361.358379 378 
L 361.358379 325.827444 
L 356.469003 325.827444 
z
" clip-path="url(#pc538cd972c)" style="fill: #1f77b4"/>
   </g>
   <g id="patch_51">
    <path d="M 362.580723 378 
L 367.470099 378 
L 367.470099 330.12099 
L 362.580723 330.12099 
z
" clip-path="url(#pc538cd972c)" style="fill: #1f77b4"/>
   </g>
   <g id="patch_52">
    <path d="M 368.692442 378 
L 373.581818 378 
L 373.581818 280.975145 
L 368.692442 280.975145 
z
" clip-path="url(#pc538cd972c)" style="fill: #1f77b4"/>
   </g>
   <g id="patch_53">
    <path d="M 173.117415 378 
L 178.006791 378 
L 178.006791 67.371429 
L 173.117415 67.371429 
z
" clip-path="url(#pc538cd972c)" style="fill: #ff0000"/>
   </g>
   <g id="matplotlib.axis_1"/>
   <g id="matplotlib.axis_2"/>
   <g id="LineCollection_1">
    <path d="M 71.66287 168.756431 
L 371.13713 168.756431 
" clip-path="url(#pc538cd972c)" style="fill: none; stroke-dasharray: 5.55,2.4; stroke-dashoffset: 0; stroke: #ff0000; stroke-width: 1.5"/>
   </g>
   <g id="LineCollection_2">
    <path d="M 71.66287 186.207272 
L 371.13713 186.207272 
" clip-path="url(#pc538cd972c)" style="fill: none; stroke-dasharray: 5.55,2.4; stroke-dashoffset: 0; stroke: #008080; stroke-width: 1.5"/>
   </g>
   <g id="patch_54">
    <path d="M 54 378 
L 54 51.84 
" style="fill: none; stroke: #000000; stroke-width: 0.8; stroke-linejoin: miter; stroke-linecap: square"/>
   </g>
   <g id="patch_55">
    <path d="M 388.8 378 
L 388.8 51.84 
" style="fill: none; stroke: #000000; stroke-width: 0.8; stroke-linejoin: miter; stroke-linecap: square"/>
   </g>
   <g id="patch_56">
    <path d="M 54 378 
L 388.8 378 
" style="fill: none; stroke: #000000; stroke-width: 0.8; stroke-linejoin: miter; stroke-linecap: square"/>
   </g>
   <g id="patch_57">
    <path d="M 54 51.84 
L 388.8 51.84 
" style="fill: none; stroke: #000000; stroke-width: 0.8; stroke-linejoin: miter; stroke-linecap: square"/>
   </g>
  </g>
 </g>
 <defs>
  <clipPath id="pc538cd972c">
   <rect x="54" y="51.84" width="334.8" height="326.16"/>
  </clipPath>
 </defs>
</svg>
